<svg width="23" height="25" viewBox="0 0 23 25" fill="none" xmlns="http://www.w3.org/2000/svg">
<g clip-path="url(#clip0_130_261)">
<path d="M17.1562 23.6796H5.40615C4.85231 23.6796 4.32114 23.4326 3.92951 22.9931C3.53789 22.5536 3.31787 21.9574 3.31787 21.3358V3.17175C3.31787 2.55015 3.53789 1.95401 3.92951 1.51447C4.32114 1.07493 4.85231 0.828003 5.40615 0.828003H13.4878C13.8556 0.827867 14.2189 0.919639 14.5512 1.09666C14.8835 1.27368 15.1765 1.53151 15.409 1.85144L18.5206 6.08582C18.9777 6.72877 19.2236 7.52888 19.2167 8.35144V21.3358C19.2167 21.952 19.0005 22.5435 18.6149 22.9821C18.2293 23.4208 17.7052 23.6713 17.1562 23.6796ZM5.40615 2.3905C5.22154 2.3905 5.04448 2.47281 4.91394 2.61933C4.7834 2.76584 4.71006 2.96455 4.71006 3.17175V21.3358C4.71006 21.543 4.7834 21.7417 4.91394 21.8882C5.04448 22.0348 5.22154 22.1171 5.40615 22.1171H17.1562C17.3408 22.1171 17.5179 22.0348 17.6484 21.8882C17.779 21.7417 17.8523 21.543 17.8523 21.3358V8.35144C17.8509 7.88639 17.7058 7.43629 17.4416 7.078L14.337 2.84363C14.2345 2.70192 14.105 2.58771 13.9581 2.50931C13.8111 2.43092 13.6505 2.39033 13.4878 2.3905H5.40615Z" fill="black"/>
<path d="M10.7413 9.797H7.8873C7.51807 9.797 7.16396 9.63238 6.90288 9.33935C6.64179 9.04633 6.49512 8.6489 6.49512 8.2345V5.89075C6.49512 5.47635 6.64179 5.07892 6.90288 4.78589C7.16396 4.49287 7.51807 4.32825 7.8873 4.32825H10.7413C11.1105 4.32825 11.4646 4.49287 11.7257 4.78589C11.9868 5.07892 12.1335 5.47635 12.1335 5.89075V8.2345C12.1335 8.6489 11.9868 9.04633 11.7257 9.33935C11.4646 9.63238 11.1105 9.797 10.7413 9.797ZM7.8873 5.89075V8.2345H10.7413V5.89075H7.8873Z" fill="black"/>
<path d="M15.3703 13.9689H7.19121C7.0066 13.9689 6.82954 13.8866 6.699 13.74C6.56845 13.5935 6.49512 13.3948 6.49512 13.1876C6.49512 12.9804 6.56845 12.7817 6.699 12.6352C6.82954 12.4887 7.0066 12.4064 7.19121 12.4064H15.3703C15.5549 12.4064 15.732 12.4887 15.8625 12.6352C15.9931 12.7817 16.0664 12.9804 16.0664 13.1876C16.0664 13.3948 15.9931 13.5935 15.8625 13.74C15.732 13.8866 15.5549 13.9689 15.3703 13.9689Z" fill="black"/>
<path d="M15.3703 16.5704H7.19121C7.0066 16.5704 6.82954 16.4881 6.699 16.3416C6.56845 16.195 6.49512 15.9963 6.49512 15.7891C6.49512 15.5819 6.56845 15.3832 6.699 15.2367C6.82954 15.0902 7.0066 15.0079 7.19121 15.0079H15.3703C15.5549 15.0079 15.732 15.0902 15.8625 15.2367C15.9931 15.3832 16.0664 15.5819 16.0664 15.7891C16.0664 15.9963 15.9931 16.195 15.8625 16.3416C15.732 16.4881 15.5549 16.5704 15.3703 16.5704Z" fill="black"/>
<path d="M11.6741 19.1719H7.19121C7.0066 19.1719 6.82954 19.0896 6.699 18.9431C6.56845 18.7965 6.49512 18.5978 6.49512 18.3906C6.49512 18.1834 6.56845 17.9847 6.699 17.8382C6.82954 17.6917 7.0066 17.6094 7.19121 17.6094H11.6741C11.8587 17.6094 12.0357 17.6917 12.1663 17.8382C12.2968 17.9847 12.3701 18.1834 12.3701 18.3906C12.3701 18.5978 12.2968 18.7965 12.1663 18.9431C12.0357 19.0896 11.8587 19.1719 11.6741 19.1719Z" fill="black"/>
</g>
<defs>
<clipPath id="clip0_130_261">
<rect width="22.275" height="25" fill="white" transform="translate(0.5)"/>
</clipPath>
</defs>
</svg>
