<svg width="23" height="25" viewBox="0 0 23 25" fill="none" xmlns="http://www.w3.org/2000/svg">
<path d="M18.6052 11.9062H4.67637C4.39097 11.9062 4.1543 12.1719 4.1543 12.4922C4.1543 15.8047 5.87365 18.6719 8.36566 20.0391V21.875C8.36566 22.1953 8.60234 22.4609 8.88773 22.4609H14.4008C14.6862 22.4609 14.9229 22.1953 14.9229 21.875V20.0391C17.4079 18.6719 19.1273 15.8125 19.1273 12.5C19.1273 12.1797 18.8906 11.9141 18.6052 11.9141V11.9062ZM13.8787 21.2891H9.40981V20.5156C10.1129 20.7656 10.8646 20.8984 11.6443 20.8984C12.4239 20.8984 13.1757 20.7656 13.8857 20.5156V21.2891H13.8787ZM11.6373 19.7266C8.76244 19.7266 6.32611 17.6016 5.49776 14.6719H15.7234C16.0088 14.6719 16.2454 14.4063 16.2454 14.0859C16.2454 13.7656 16.0088 13.5 15.7234 13.5H5.26805C5.24716 13.3594 5.23324 13.2187 5.21932 13.0781H18.0623C17.7977 16.7891 15.0203 19.7266 11.6373 19.7266Z" fill="black"/>
<path d="M18.2852 4.08594H10.9344V3.98437C10.9344 3.1875 10.3567 2.53906 9.64664 2.53906C9.36124 2.53906 9.09673 2.64844 8.88094 2.82812C8.66515 2.64844 8.40063 2.53906 8.11523 2.53906C7.82984 2.53906 7.56532 2.64844 7.34953 2.82812C7.13374 2.64844 6.86923 2.53906 6.58383 2.53906C6.29843 2.53906 6.03391 2.64844 5.81812 2.82812C5.60234 2.64844 5.33782 2.53906 5.05242 2.53906C4.34241 2.53906 3.76465 3.1875 3.76465 3.98437V7C3.76465 7.79687 4.34241 8.44531 5.05242 8.44531C5.33782 8.44531 5.60234 8.33594 5.81812 8.15625C6.03391 8.33594 6.29843 8.44531 6.58383 8.44531C6.86923 8.44531 7.13374 8.33594 7.34953 8.15625C7.56532 8.33594 7.82984 8.44531 8.11523 8.44531C8.40063 8.44531 8.66515 8.33594 8.88094 8.15625C9.09673 8.33594 9.36124 8.44531 9.64664 8.44531C10.3567 8.44531 10.9344 7.79687 10.9344 7V6.84375H18.2921C18.9673 6.84375 19.5242 6.22656 19.5242 5.46094C19.5242 4.69531 18.9743 4.07812 18.2921 4.07812L18.2852 4.08594ZM5.04546 7.28125C4.9132 7.28125 4.80183 7.15625 4.80183 7.00781V3.99219C4.80183 3.84375 4.9132 3.71875 5.04546 3.71875C5.17772 3.71875 5.28909 3.84375 5.28909 3.99219V7.00781C5.28909 7.15625 5.17772 7.28125 5.04546 7.28125ZM6.57687 7.28125C6.44461 7.28125 6.33323 7.15625 6.33323 7.00781V3.99219C6.33323 3.84375 6.44461 3.71875 6.57687 3.71875C6.70912 3.71875 6.8205 3.84375 6.8205 3.99219V7.00781C6.8205 7.15625 6.70912 7.28125 6.57687 7.28125ZM8.10827 7.28125C7.97602 7.28125 7.86464 7.15625 7.86464 7.00781V3.99219C7.86464 3.84375 7.97602 3.71875 8.10827 3.71875C8.24053 3.71875 8.35191 3.84375 8.35191 3.99219V7.00781C8.35191 7.15625 8.24053 7.28125 8.10827 7.28125ZM9.88331 7.00781C9.88331 7.15625 9.77194 7.28125 9.63968 7.28125C9.50742 7.28125 9.39605 7.15625 9.39605 7.00781V3.99219C9.39605 3.84375 9.50742 3.71875 9.63968 3.71875C9.77194 3.71875 9.88331 3.84375 9.88331 3.99219V7.00781ZM18.2852 5.67969H10.9344V5.26562H18.2921C18.3965 5.26562 18.4801 5.35938 18.4801 5.47656C18.4801 5.59375 18.3965 5.6875 18.2921 5.6875L18.2852 5.67969Z" fill="black"/>
</svg>
